<svg fill="none" height="24" viewBox="0 0 12 24" width="12" xmlns="http://www.w3.org/2000/svg"><path d="m11.5481.0049936-2.87824-.0049936c-3.23362 0-5.32333 2.31828-5.32333 5.90643v2.72326h-2.893952c-.250072 0-.452578.21922-.452578.48963v3.94568c0 .2704.202736.4894.452578.4894h2.893952v9.9562c0 .2704.20251.4894.45258.4894h3.77579c.25007 0 .45258-.2192.45258-.4894v-9.9562h3.38372c.2501 0 .4526-.219.4526-.4894l.0014-3.94568c0-.12984-.0478-.25418-.1326-.34606-.0847-.09188-.2002-.14357-.3203-.14357h-3.38482v-2.30854c0-1.10958.24453-1.67286 1.58125-1.67286l1.93897-.00074c.2498 0 .4523-.21922.4523-.48938v-3.663803c0-.269905-.2023-.48887404-.4519-.4893734z" fill="#fff"/></svg>