<svg fill="none" height="13" viewBox="0 0 24 13" width="24" xmlns="http://www.w3.org/2000/svg"><path clip-rule="evenodd" d="m20.6554 8.26599c.7961.74397 1.6364 1.44393 2.3504 2.26291.3154.364.6141.7395.8425 1.1619.3237.6004.0305 1.2611-.532 1.297l-3.4963-.0015c-.9018.0716-1.6212-.2759-2.2261-.866-.4841-.472-.9324-.9743-1.3978-1.4622-.1909-.1994-.3906-.387-.6292-.5353-.4773-.29657-.8916-.20577-1.1644.2707-.2778.4846-.3408 1.0213-.3681 1.5614-.0374.788-.2863.9952-1.1133 1.0313-1.7674.0798-3.44481-.1762-5.00304-1.0296-1.3738-.7523-2.43912-1.8144-3.36636-3.01683-1.80536-2.34135-3.18791-4.9141-4.430492-7.55893-.279695-.595889-.0751477-.915756.611749-.927078 1.140623-.021208 2.281093-.019699 3.423053-.001509.46358.006491.77048.260996.94948.680187.61711 1.45239 1.37222 2.83421 2.32004 4.11504.25241.341.50979.682.87631.92201.40546.26575.71418.17767.90493-.25465.12104-.27413.17403-.5694.20131-.863.09037-1.01009.10227-2.01846-.05622-3.025-.09731-.62819-.46698-1.034858-1.12186-1.153732-.33418-.060608-.28442-.179633-.12262-.36221.28104-.314886.54536-.510898 1.07226-.510898h3.95146c.6221.117516.7602.385004.8454.984133l.0034 4.201227c-.0068.23194.121.9202.5575 1.07372.3493.10929.5796-.1582.7891-.37021.9461-.96111 1.6214-2.09695 2.2246-3.27309.2677-.51717.4979-1.05425.721-1.59089.1652-.398212.4246-.594148.8932-.585468l3.8031.003245c.1127 0 .2268.001585.336.019473.6409.104535.8165.368399.6186.96738-.3119.93975-.9187 1.72289-1.512 2.50965-.6342.83998-1.3125 1.65119-1.9414 2.49615-.5779.77159-.532 1.16052.1858 1.83067z" fill="#fff" fill-rule="evenodd"/></svg>